<svg xmlns="http://www.w3.org/2000/svg" xmlns:xlink="http://www.w3.org/1999/xlink" version="1.1" x="0px" y="0px" viewBox="0 0 100 125" enable-background="new 0 0 100 100" xml:space="preserve"><g><path d="M89.152,25.588c-3.794-0.943-3.751-2.42-1.021-5.979c2.731-3.56,7.473-9.771,3.911-13.333   c-3.562-3.562-9.773,1.181-13.333,3.911c-3.56,2.731-5.037,2.774-5.979-1.021c-1.514-6.096-7.895-2.861-9.31,4.226   c-1.471,7.367-3.16,8.594-4.2,8.833c-4.34,0.996-3.108-10.857-8.808-9.385c-3.005,0.776-5.723,3.319-4.911,12.851   c0.607,7.127-5.22,8.786-5.919,5.507c-1.095-5.131-2.277-11.025-6.436-9.959c-6.852,1.756-6.365,10.827-6.128,15.512   c0.429,8.482-2.205,11.383-3.473,7.598c-0.826-2.466-2.675-7.186-6.026-5.523c-4.796,2.38-5.546,18.094,2.344,31.136   c1.495-1.57,2.997-3.133,4.504-4.69l-2.838-10.289c-0.086-0.312,0.515-0.512,0.633-0.211l3.574,9.081   c0.082-0.085,0.164-0.17,0.246-0.255c3.501-3.587,7.037-7.138,10.606-10.653l-2.384-14.528c-0.062-0.379,0.557-0.509,0.653-0.137   l3.361,13.071c3.227-3.16,6.476-6.296,9.758-9.398c1.31-1.242,2.642-2.463,3.964-3.692l-0.433-11.065   c-0.011-0.286,0.619-0.348,0.664-0.066l1.521,9.5c2.914-2.686,5.847-5.351,8.818-7.975c1.676-1.481,3.369-2.943,5.073-4.394   l0.857-8.677c0.022-0.221,0.655-0.207,0.667,0.014l0.393,7.039c2.683-2.242,5.408-4.434,8.206-6.539   c0.427-0.326,0.898-0.411,1.065-0.191c0.164,0.215-0.021,0.642-0.414,0.978c-0.128,0.058-0.259,0.131-0.388,0.237   c-5.108,4.151-9.962,8.586-14.717,13.114c-4.757,4.529-9.435,9.138-14.028,13.831c-7.206,7.338-14.263,14.822-21.172,22.451   c-6.892,7.648-13.694,15.375-20.119,23.502c-1.66,2.118-1.528,3.765-0.421,4.575c1.107,0.81,2.728,0.483,4.271-1.647   c4.184-5.726,8.605-11.317,13.117-16.841c13.55,10.347,31.998,9.925,34.593,4.695c1.663-3.351-3.057-5.2-5.523-6.026   c-3.785-1.268-0.884-3.903,7.598-3.473c4.684,0.237,13.756,0.724,15.512-6.128c1.066-4.159-4.828-5.342-9.959-6.436   c-3.279-0.7-1.62-6.527,5.507-5.919c9.532,0.812,12.075-1.906,12.851-4.911c1.472-5.7-10.381-4.468-9.385-8.808   c0.239-1.04,1.466-2.729,8.833-4.2C92.013,33.483,95.247,27.102,89.152,25.588z M44.243,76.26l-15.99-4.23   c0.507-0.612,1.012-1.225,1.521-1.835l14.671,5.429C44.779,75.747,44.588,76.351,44.243,76.26z M61.801,63.522l-22.242-4.631   c-0.043-0.009-0.081-0.025-0.122-0.037c0.557-0.641,1.111-1.284,1.67-1.923l20.854,5.944   C62.415,63.004,62.264,63.618,61.801,63.522z M72.56,45.961l-18.451-2.988c-0.124-0.02-0.231-0.074-0.334-0.135   c0.581-0.631,1.161-1.261,1.745-1.889l17.175,4.359C73.072,45.403,72.943,46.023,72.56,45.961z M82.649,29.024l-14.143-1.546   c-0.011-0.001-0.02-0.009-0.031-0.011c0.646-0.643,1.296-1.281,1.948-1.918l12.337,2.817   C83.048,28.432,82.943,29.056,82.649,29.024z"/></g><text x="0" y="115" fill="#000000" font-size="5px" font-weight="bold" font-family="'Helvetica Neue', Helvetica, Arial-Unicode, Arial, Sans-serif">Created by fauzan akbar</text><text x="0" y="120" fill="#000000" font-size="5px" font-weight="bold" font-family="'Helvetica Neue', Helvetica, Arial-Unicode, Arial, Sans-serif">from the Noun Project</text></svg>